<svg width="175" height="32" viewBox="0 0 175 32" fill="none" xmlns="http://www.w3.org/2000/svg">
<path d="M49.386 18.931C49.518 18.931 49.635 18.982 49.737 19.084L50.691 20.119C50.163 20.773 49.512 21.274 48.738 21.622C47.97 21.97 47.046 22.144 45.966 22.144C45 22.144 44.13 21.979 43.356 21.649C42.588 21.319 41.931 20.86 41.385 20.272C40.839 19.684 40.419 18.982 40.125 18.166C39.837 17.35 39.693 16.459 39.693 15.493C39.693 14.515 39.849 13.621 40.161 12.811C40.473 11.995 40.911 11.293 41.475 10.705C42.045 10.117 42.723 9.661 43.509 9.337C44.295 9.007 45.165 8.842 46.119 8.842C47.067 8.842 47.907 8.998 48.639 9.31C49.377 9.622 50.004 10.03 50.52 10.534L49.71 11.659C49.662 11.731 49.599 11.794 49.521 11.848C49.449 11.902 49.347 11.929 49.215 11.929C49.125 11.929 49.032 11.905 48.936 11.857C48.84 11.803 48.735 11.74 48.621 11.668C48.507 11.59 48.375 11.506 48.225 11.416C48.075 11.326 47.901 11.245 47.703 11.173C47.505 11.095 47.274 11.032 47.01 10.984C46.752 10.93 46.452 10.903 46.11 10.903C45.528 10.903 44.994 11.008 44.508 11.218C44.028 11.422 43.614 11.722 43.266 12.118C42.918 12.508 42.648 12.988 42.456 13.558C42.264 14.122 42.168 14.767 42.168 15.493C42.168 16.225 42.27 16.876 42.474 17.446C42.684 18.016 42.966 18.496 43.32 18.886C43.674 19.276 44.091 19.576 44.571 19.786C45.051 19.99 45.567 20.092 46.119 20.092C46.449 20.092 46.746 20.074 47.01 20.038C47.28 20.002 47.526 19.945 47.748 19.867C47.976 19.789 48.189 19.69 48.387 19.57C48.591 19.444 48.792 19.291 48.99 19.111C49.05 19.057 49.113 19.015 49.179 18.985C49.245 18.949 49.314 18.931 49.386 18.931ZM59.9724 20.002V22H52.3494V8.986H54.7704V20.002H59.9724ZM73.6549 15.493C73.6549 16.447 73.4959 17.332 73.1779 18.148C72.8659 18.958 72.4219 19.66 71.8459 20.254C71.2699 20.848 70.5769 21.313 69.7669 21.649C68.9569 21.979 68.0569 22.144 67.0669 22.144C66.0829 22.144 65.1859 21.979 64.3759 21.649C63.5659 21.313 62.8699 20.848 62.2879 20.254C61.7119 19.66 61.2649 18.958 60.9469 18.148C60.6289 17.332 60.4699 16.447 60.4699 15.493C60.4699 14.539 60.6289 13.657 60.9469 12.847C61.2649 12.031 61.7119 11.326 62.2879 10.732C62.8699 10.138 63.5659 9.676 64.3759 9.346C65.1859 9.01 66.0829 8.842 67.0669 8.842C67.7269 8.842 68.3479 8.92 68.9299 9.076C69.5119 9.226 70.0459 9.442 70.5319 9.724C71.0179 10 71.4529 10.339 71.8369 10.741C72.2269 11.137 72.5569 11.581 72.8269 12.073C73.0969 12.565 73.3009 13.099 73.4389 13.675C73.5829 14.251 73.6549 14.857 73.6549 15.493ZM71.1799 15.493C71.1799 14.779 71.0839 14.14 70.8919 13.576C70.6999 13.006 70.4269 12.523 70.0729 12.127C69.7189 11.731 69.2869 11.428 68.7769 11.218C68.2729 11.008 67.7029 10.903 67.0669 10.903C66.4309 10.903 65.8579 11.008 65.3479 11.218C64.8439 11.428 64.4119 11.731 64.0519 12.127C63.6979 12.523 63.4249 13.006 63.2329 13.576C63.0409 14.14 62.9449 14.779 62.9449 15.493C62.9449 16.207 63.0409 16.849 63.2329 17.419C63.4249 17.983 63.6979 18.463 64.0519 18.859C64.4119 19.249 64.8439 19.549 65.3479 19.759C65.8579 19.969 66.4309 20.074 67.0669 20.074C67.7029 20.074 68.2729 19.969 68.7769 19.759C69.2869 19.549 69.7189 19.249 70.0729 18.859C70.4269 18.463 70.6999 17.983 70.8919 17.419C71.0839 16.849 71.1799 16.207 71.1799 15.493ZM81.019 20.047C81.487 20.047 81.904 19.969 82.27 19.813C82.642 19.657 82.954 19.438 83.206 19.156C83.458 18.874 83.65 18.532 83.782 18.13C83.92 17.728 83.989 17.278 83.989 16.78V8.986H86.41V16.78C86.41 17.554 86.284 18.271 86.032 18.931C85.786 19.585 85.429 20.152 84.961 20.632C84.499 21.106 83.935 21.478 83.269 21.748C82.603 22.012 81.853 22.144 81.019 22.144C80.179 22.144 79.426 22.012 78.76 21.748C78.094 21.478 77.527 21.106 77.059 20.632C76.597 20.152 76.24 19.585 75.988 18.931C75.742 18.271 75.619 17.554 75.619 16.78V8.986H78.04V16.771C78.04 17.269 78.106 17.719 78.238 18.121C78.376 18.523 78.571 18.868 78.823 19.156C79.081 19.438 79.393 19.657 79.759 19.813C80.131 19.969 80.551 20.047 81.019 20.047ZM100.696 15.493C100.696 16.447 100.537 17.323 100.219 18.121C99.9014 18.919 99.4544 19.606 98.8784 20.182C98.3024 20.758 97.6094 21.205 96.7994 21.523C95.9894 21.841 95.0894 22 94.0994 22H89.1404V8.986H94.0994C95.0894 8.986 95.9894 9.148 96.7994 9.472C97.6094 9.79 98.3024 10.237 98.8784 10.813C99.4544 11.383 99.9014 12.067 100.219 12.865C100.537 13.663 100.696 14.539 100.696 15.493ZM98.2124 15.493C98.2124 14.779 98.1164 14.14 97.9244 13.576C97.7384 13.006 97.4654 12.526 97.1054 12.136C96.7514 11.74 96.3194 11.437 95.8094 11.227C95.3054 11.017 94.7354 10.912 94.0994 10.912H91.5704V20.074H94.0994C94.7354 20.074 95.3054 19.969 95.8094 19.759C96.3194 19.549 96.7514 19.249 97.1054 18.859C97.4654 18.463 97.7384 17.983 97.9244 17.419C98.1164 16.849 98.2124 16.207 98.2124 15.493ZM107.703 20.11C108.153 20.11 108.531 20.056 108.837 19.948C109.143 19.84 109.386 19.696 109.566 19.516C109.752 19.336 109.884 19.126 109.962 18.886C110.046 18.646 110.088 18.391 110.088 18.121C110.088 17.839 110.043 17.587 109.953 17.365C109.863 17.137 109.722 16.945 109.53 16.789C109.338 16.627 109.089 16.504 108.783 16.42C108.483 16.336 108.12 16.294 107.694 16.294H105.255V20.11H107.703ZM105.255 10.858V14.62H107.181C108.009 14.62 108.633 14.47 109.053 14.17C109.479 13.87 109.692 13.393 109.692 12.739C109.692 12.061 109.5 11.578 109.116 11.29C108.732 11.002 108.132 10.858 107.316 10.858H105.255ZM107.316 8.986C108.168 8.986 108.897 9.067 109.503 9.229C110.109 9.391 110.604 9.622 110.988 9.922C111.378 10.222 111.663 10.585 111.843 11.011C112.023 11.437 112.113 11.917 112.113 12.451C112.113 12.757 112.068 13.051 111.978 13.333C111.888 13.609 111.747 13.87 111.555 14.116C111.369 14.356 111.129 14.575 110.835 14.773C110.547 14.971 110.202 15.139 109.8 15.277C111.588 15.679 112.482 16.645 112.482 18.175C112.482 18.727 112.377 19.237 112.167 19.705C111.957 20.173 111.651 20.578 111.249 20.92C110.847 21.256 110.352 21.52 109.764 21.712C109.176 21.904 108.504 22 107.748 22H102.834V8.986H107.316ZM119.919 20.047C120.387 20.047 120.804 19.969 121.17 19.813C121.542 19.657 121.854 19.438 122.106 19.156C122.358 18.874 122.55 18.532 122.682 18.13C122.82 17.728 122.889 17.278 122.889 16.78V8.986H125.31V16.78C125.31 17.554 125.184 18.271 124.932 18.931C124.686 19.585 124.329 20.152 123.861 20.632C123.399 21.106 122.835 21.478 122.169 21.748C121.503 22.012 120.753 22.144 119.919 22.144C119.079 22.144 118.326 22.012 117.66 21.748C116.994 21.478 116.427 21.106 115.959 20.632C115.497 20.152 115.14 19.585 114.888 18.931C114.642 18.271 114.519 17.554 114.519 16.78V8.986H116.94V16.771C116.94 17.269 117.006 17.719 117.138 18.121C117.276 18.523 117.471 18.868 117.723 19.156C117.981 19.438 118.293 19.657 118.659 19.813C119.031 19.969 119.451 20.047 119.919 20.047ZM139.597 15.493C139.597 16.447 139.438 17.323 139.12 18.121C138.802 18.919 138.355 19.606 137.779 20.182C137.203 20.758 136.51 21.205 135.7 21.523C134.89 21.841 133.99 22 133 22H128.041V8.986H133C133.99 8.986 134.89 9.148 135.7 9.472C136.51 9.79 137.203 10.237 137.779 10.813C138.355 11.383 138.802 12.067 139.12 12.865C139.438 13.663 139.597 14.539 139.597 15.493ZM137.113 15.493C137.113 14.779 137.017 14.14 136.825 13.576C136.639 13.006 136.366 12.526 136.006 12.136C135.652 11.74 135.22 11.437 134.71 11.227C134.206 11.017 133.636 10.912 133 10.912H130.471V20.074H133C133.636 20.074 134.206 19.969 134.71 19.759C135.22 19.549 135.652 19.249 136.006 18.859C136.366 18.463 136.639 17.983 136.825 17.419C137.017 16.849 137.113 16.207 137.113 15.493ZM152.462 15.475V20.74C151.802 21.226 151.097 21.583 150.347 21.811C149.603 22.033 148.805 22.144 147.953 22.144C146.891 22.144 145.928 21.979 145.064 21.649C144.206 21.319 143.471 20.86 142.859 20.272C142.253 19.684 141.785 18.982 141.455 18.166C141.125 17.35 140.96 16.459 140.96 15.493C140.96 14.515 141.119 13.618 141.437 12.802C141.755 11.986 142.205 11.284 142.787 10.696C143.375 10.108 144.086 9.652 144.92 9.328C145.754 9.004 146.69 8.842 147.728 8.842C148.256 8.842 148.748 8.884 149.204 8.968C149.666 9.052 150.092 9.169 150.482 9.319C150.878 9.463 151.238 9.64 151.562 9.85C151.886 10.06 152.183 10.291 152.453 10.543L151.76 11.641C151.652 11.815 151.511 11.923 151.337 11.965C151.163 12.001 150.974 11.956 150.77 11.83C150.572 11.716 150.374 11.602 150.176 11.488C149.978 11.374 149.756 11.275 149.51 11.191C149.27 11.107 148.997 11.038 148.691 10.984C148.391 10.93 148.043 10.903 147.647 10.903C147.005 10.903 146.423 11.011 145.901 11.227C145.385 11.443 144.944 11.752 144.578 12.154C144.212 12.556 143.93 13.039 143.732 13.603C143.534 14.167 143.435 14.797 143.435 15.493C143.435 16.237 143.54 16.903 143.75 17.491C143.966 18.073 144.266 18.568 144.65 18.976C145.04 19.378 145.508 19.687 146.054 19.903C146.6 20.113 147.209 20.218 147.881 20.218C148.361 20.218 148.79 20.167 149.168 20.065C149.546 19.963 149.915 19.825 150.275 19.651V17.293H148.637C148.481 17.293 148.358 17.251 148.268 17.167C148.184 17.077 148.142 16.969 148.142 16.843V15.475H152.462ZM157.225 10.912V14.521H161.779V16.384H157.225V20.065H163.003V22H154.795V8.986H163.003V10.912H157.225ZM174.238 10.975H170.314V22H167.893V10.975H163.969V8.986H174.238V10.975Z" fill="white"/>
<g filter="url(#filter0_dd_6_338)">
<path d="M24.605 13.05C24.605 12.615 24.75 12.18 24.75 11.6C24.75 8.41002 22.14 5.80002 18.95 5.80002C16.63 5.80002 14.745 7.10502 13.73 8.99002C13.44 8.84502 12.86 8.70002 12.425 8.70002C10.395 8.70002 8.80001 10.295 8.80001 12.325C8.80001 12.615 8.80001 12.905 8.94501 13.05C6.33501 13.485 4.45001 15.515 4.45001 18.125C4.45001 20.88 6.77001 23.2 9.52501 23.2H24.025C26.78 23.2 29.1 20.88 29.1 18.125C29.1 15.515 27.215 13.34 24.605 13.05Z" fill="white"/>
</g>
<defs>
<filter id="filter0_dd_6_338" x="-1" y="0" width="37" height="37" filterUnits="userSpaceOnUse" color-interpolation-filters="sRGB">
<feFlood flood-opacity="0" result="BackgroundImageFix"/>
<feColorMatrix in="SourceAlpha" type="matrix" values="0 0 0 0 0 0 0 0 0 0 0 0 0 0 0 0 0 0 127 0" result="hardAlpha"/>
<feOffset dy="4"/>
<feGaussianBlur stdDeviation="2"/>
<feComposite in2="hardAlpha" operator="out"/>
<feColorMatrix type="matrix" values="0 0 0 0 0 0 0 0 0 0 0 0 0 0 0 0 0 0 0.25 0"/>
<feBlend mode="normal" in2="BackgroundImageFix" result="effect1_dropShadow_6_338"/>
<feColorMatrix in="SourceAlpha" type="matrix" values="0 0 0 0 0 0 0 0 0 0 0 0 0 0 0 0 0 0 127 0" result="hardAlpha"/>
<feOffset dy="4"/>
<feGaussianBlur stdDeviation="2"/>
<feComposite in2="hardAlpha" operator="out"/>
<feColorMatrix type="matrix" values="0 0 0 0 0 0 0 0 0 0 0 0 0 0 0 0 0 0 0.25 0"/>
<feBlend mode="normal" in2="effect1_dropShadow_6_338" result="effect2_dropShadow_6_338"/>
<feBlend mode="normal" in="SourceGraphic" in2="effect2_dropShadow_6_338" result="shape"/>
</filter>
</defs>
</svg>
