<svg width="437" height="12" viewBox="0 0 437 12" fill="none" xmlns="http://www.w3.org/2000/svg">
<path d="M10.78 5.939C10.78 6.681 10.6563 7.36933 10.409 8.004C10.1663 8.634 9.821 9.18 9.373 9.642C8.925 10.104 8.386 10.4657 7.756 10.727C7.126 10.9837 6.426 11.112 5.656 11.112C4.89067 11.112 4.193 10.9837 3.563 10.727C2.933 10.4657 2.39167 10.104 1.939 9.642C1.491 9.18 1.14333 8.634 0.896 8.004C0.648667 7.36933 0.525 6.681 0.525 5.939C0.525 5.197 0.648667 4.511 0.896 3.881C1.14333 3.24633 1.491 2.698 1.939 2.236C2.39167 1.774 2.933 1.41467 3.563 1.158C4.193 0.896667 4.89067 0.766 5.656 0.766C6.16933 0.766 6.65233 0.826666 7.105 0.947999C7.55767 1.06467 7.973 1.23267 8.351 1.452C8.729 1.66667 9.06733 1.93033 9.366 2.243C9.66933 2.551 9.926 2.89633 10.136 3.279C10.346 3.66167 10.5047 4.077 10.612 4.525C10.724 4.973 10.78 5.44433 10.78 5.939ZM8.855 5.939C8.855 5.38367 8.78033 4.88667 8.631 4.448C8.48167 4.00467 8.26933 3.629 7.994 3.321C7.71867 3.013 7.38267 2.77733 6.986 2.614C6.594 2.45067 6.15067 2.369 5.656 2.369C5.16133 2.369 4.71567 2.45067 4.319 2.614C3.927 2.77733 3.591 3.013 3.311 3.321C3.03567 3.629 2.82333 4.00467 2.674 4.448C2.52467 4.88667 2.45 5.38367 2.45 5.939C2.45 6.49433 2.52467 6.99367 2.674 7.437C2.82333 7.87567 3.03567 8.249 3.311 8.557C3.591 8.86033 3.927 9.09367 4.319 9.257C4.71567 9.42033 5.16133 9.502 5.656 9.502C6.15067 9.502 6.594 9.42033 6.986 9.257C7.38267 9.09367 7.71867 8.86033 7.994 8.557C8.26933 8.249 8.48167 7.87567 8.631 7.437C8.78033 6.99367 8.855 6.49433 8.855 5.939ZM20.7785 0.877999L16.6905 11H14.9895L10.9015 0.877999H12.4135C12.5768 0.877999 12.7098 0.917666 12.8125 0.997C12.9152 1.07633 12.9922 1.179 13.0435 1.305L15.4305 7.479C15.5098 7.67967 15.5845 7.90133 15.6545 8.144C15.7292 8.382 15.7992 8.63167 15.8645 8.893C15.9205 8.63167 15.9812 8.382 16.0465 8.144C16.1118 7.90133 16.1842 7.67967 16.2635 7.479L18.6365 1.305C18.6738 1.19767 18.7462 1.09967 18.8535 1.011C18.9655 0.922333 19.1008 0.877999 19.2595 0.877999H20.7785ZM23.7162 2.376V5.183H27.2582V6.632H23.7162V9.495H28.2102V11H21.8262V0.877999H28.2102V2.376H23.7162ZM32.938 5.694C33.2926 5.694 33.6006 5.64967 33.862 5.561C34.128 5.47233 34.345 5.351 34.513 5.197C34.6856 5.03833 34.814 4.85167 34.898 4.637C34.982 4.42233 35.024 4.18667 35.024 3.93C35.024 3.41667 34.8536 3.02233 34.513 2.747C34.177 2.47167 33.6613 2.334 32.966 2.334H31.762V5.694H32.938ZM37.782 11H36.081C35.759 11 35.5256 10.874 35.381 10.622L33.253 7.381C33.1736 7.25967 33.085 7.17333 32.987 7.122C32.8936 7.07067 32.7536 7.045 32.567 7.045H31.762V11H29.879V0.877999H32.966C33.652 0.877999 34.24 0.950333 34.73 1.095C35.2246 1.235 35.6283 1.43333 35.941 1.69C36.2583 1.94667 36.4916 2.25467 36.641 2.614C36.7903 2.96867 36.865 3.36067 36.865 3.79C36.865 4.13067 36.8136 4.45267 36.711 4.756C36.613 5.05933 36.4683 5.33467 36.277 5.582C36.0903 5.82933 35.857 6.04633 35.577 6.233C35.3016 6.41967 34.9866 6.56667 34.632 6.674C34.7533 6.744 34.8653 6.828 34.968 6.926C35.0706 7.01933 35.164 7.13133 35.248 7.262L37.782 11ZM47.2336 0.877999L43.1456 11H41.4446L37.3566 0.877999H38.8686C39.0319 0.877999 39.1649 0.917666 39.2676 0.997C39.3703 1.07633 39.4473 1.179 39.4986 1.305L41.8856 7.479C41.9649 7.67967 42.0396 7.90133 42.1096 8.144C42.1843 8.382 42.2543 8.63167 42.3196 8.893C42.3756 8.63167 42.4363 8.382 42.5016 8.144C42.5669 7.90133 42.6393 7.67967 42.7186 7.479L45.0916 1.305C45.1289 1.19767 45.2013 1.09967 45.3086 1.011C45.4206 0.922333 45.5559 0.877999 45.7146 0.877999H47.2336ZM50.1713 11H48.2813V0.877999H50.1713V11ZM54.3275 2.376V5.183H57.8695V6.632H54.3275V9.495H58.8215V11H52.4375V0.877999H58.8215V2.376H54.3275ZM73.9583 0.877999L70.8153 11H69.1143L66.9023 4.084C66.8416 3.916 66.7856 3.71067 66.7343 3.468C66.7063 3.58467 66.6783 3.69433 66.6503 3.797C66.6223 3.89967 66.5919 3.99533 66.5593 4.084L64.3263 11H62.6183L59.4823 0.877999H61.0573C61.2206 0.877999 61.3559 0.917666 61.4633 0.997C61.5753 1.07167 61.6499 1.17433 61.6873 1.305L63.4093 7.36C63.4466 7.50933 63.4816 7.67267 63.5143 7.85C63.5516 8.02267 63.5889 8.20467 63.6263 8.396C63.6636 8.2 63.7033 8.01567 63.7453 7.843C63.7919 7.67033 63.8409 7.50933 63.8923 7.36L65.8803 1.305C65.9176 1.19767 65.9899 1.09967 66.0973 1.011C66.2093 0.922333 66.3446 0.877999 66.5033 0.877999H67.0563C67.2196 0.877999 67.3526 0.917666 67.4553 0.997C67.5579 1.07633 67.6349 1.179 67.6863 1.305L69.6673 7.36C69.7653 7.64933 69.8539 7.983 69.9333 8.361C69.9939 7.99233 70.0616 7.65867 70.1363 7.36L71.8583 1.305C71.8863 1.18833 71.9563 1.088 72.0683 1.004C72.1849 0.919999 72.3226 0.877999 72.4813 0.877999H73.9583ZM98.2054 2.075V5.582H102.328V6.688H98.2054V11H96.8474V0.968999H103.028V2.075H98.2054ZM110.951 9.894L110.944 11H104.763V0.968999H110.944V2.075H106.121V5.407H110.027V6.471H106.121V9.894H110.951ZM118.171 7.276L116.596 3.195C116.549 3.07367 116.5 2.93367 116.449 2.775C116.397 2.61167 116.348 2.439 116.302 2.257C116.204 2.635 116.103 2.95 116.001 3.202L114.426 7.276H118.171ZM120.999 11H119.949C119.827 11 119.729 10.9697 119.655 10.909C119.58 10.8483 119.524 10.7713 119.487 10.678L118.549 8.256H114.048L113.11 10.678C113.082 10.762 113.028 10.8367 112.949 10.902C112.869 10.9673 112.771 11 112.655 11H111.605L115.616 0.968999H116.988L120.999 11ZM128.117 2.11H124.869V11H123.518V2.11H120.263V0.968999H128.117V2.11ZM133.476 9.922C133.892 9.922 134.263 9.852 134.589 9.712C134.916 9.572 135.191 9.376 135.415 9.124C135.644 8.872 135.817 8.571 135.933 8.221C136.055 7.871 136.115 7.486 136.115 7.066V0.968999H137.466V7.066C137.466 7.64467 137.373 8.18133 137.186 8.676C137.004 9.17067 136.741 9.6 136.395 9.964C136.055 10.3233 135.637 10.6057 135.142 10.811C134.648 11.0163 134.092 11.119 133.476 11.119C132.86 11.119 132.305 11.0163 131.81 10.811C131.316 10.6057 130.896 10.3233 130.55 9.964C130.205 9.6 129.939 9.17067 129.752 8.676C129.57 8.18133 129.479 7.64467 129.479 7.066V0.968999H130.83V7.059C130.83 7.479 130.889 7.864 131.005 8.214C131.127 8.564 131.299 8.865 131.523 9.117C131.752 9.369 132.03 9.56733 132.356 9.712C132.688 9.852 133.061 9.922 133.476 9.922ZM142.679 5.827C143.071 5.827 143.416 5.78033 143.715 5.687C144.018 5.589 144.27 5.45367 144.471 5.281C144.676 5.10367 144.83 4.89367 144.933 4.651C145.036 4.40833 145.087 4.14 145.087 3.846C145.087 3.24867 144.891 2.79833 144.499 2.495C144.107 2.19167 143.519 2.04 142.735 2.04H141.251V5.827H142.679ZM147.313 11H146.109C145.862 11 145.68 10.9043 145.563 10.713L142.959 7.129C142.88 7.017 142.793 6.93767 142.7 6.891C142.611 6.83967 142.471 6.814 142.28 6.814H141.251V11H139.9V0.968999H142.735C143.37 0.968999 143.918 1.03433 144.38 1.165C144.842 1.291 145.222 1.47533 145.521 1.718C145.824 1.96067 146.048 2.25467 146.193 2.6C146.338 2.94067 146.41 3.32333 146.41 3.748C146.41 4.10267 146.354 4.434 146.242 4.742C146.13 5.05 145.967 5.32767 145.752 5.575C145.542 5.81767 145.283 6.02533 144.975 6.198C144.672 6.37067 144.326 6.50133 143.939 6.59C144.112 6.688 144.261 6.83033 144.387 7.017L147.313 11ZM154.865 9.894L154.858 11H148.677V0.968999H154.858V2.075H150.035V5.407H153.941V6.471H150.035V9.894H154.865ZM161.889 2.537C161.847 2.607 161.8 2.66067 161.749 2.698C161.702 2.73067 161.644 2.747 161.574 2.747C161.494 2.747 161.401 2.70733 161.294 2.628C161.186 2.54867 161.051 2.46233 160.888 2.369C160.729 2.271 160.535 2.18233 160.307 2.103C160.083 2.02367 159.81 1.984 159.488 1.984C159.184 1.984 158.916 2.026 158.683 2.11C158.454 2.18933 158.26 2.299 158.102 2.439C157.948 2.579 157.831 2.74467 157.752 2.936C157.672 3.12267 157.633 3.32567 157.633 3.545C157.633 3.825 157.7 4.05833 157.836 4.245C157.976 4.427 158.158 4.58333 158.382 4.714C158.61 4.84467 158.867 4.959 159.152 5.057C159.441 5.15033 159.735 5.24833 160.034 5.351C160.337 5.45367 160.631 5.57033 160.916 5.701C161.205 5.827 161.462 5.988 161.686 6.184C161.914 6.38 162.096 6.62033 162.232 6.905C162.372 7.18967 162.442 7.53967 162.442 7.955C162.442 8.39367 162.367 8.80667 162.218 9.194C162.068 9.57667 161.849 9.91033 161.56 10.195C161.275 10.4797 160.923 10.7037 160.503 10.867C160.087 11.0303 159.614 11.112 159.082 11.112C158.428 11.112 157.836 10.9953 157.304 10.762C156.772 10.524 156.317 10.2043 155.939 9.803L156.331 9.159C156.368 9.10767 156.412 9.06567 156.464 9.033C156.52 8.99567 156.58 8.977 156.646 8.977C156.706 8.977 156.774 9.00267 156.849 9.054C156.928 9.10067 157.017 9.16133 157.115 9.236C157.213 9.31067 157.325 9.39233 157.451 9.481C157.577 9.56967 157.719 9.65133 157.878 9.726C158.041 9.80067 158.225 9.86367 158.431 9.915C158.636 9.96167 158.867 9.985 159.124 9.985C159.446 9.985 159.733 9.94067 159.985 9.852C160.237 9.76333 160.449 9.63967 160.622 9.481C160.799 9.31767 160.934 9.124 161.028 8.9C161.121 8.676 161.168 8.42633 161.168 8.151C161.168 7.84767 161.098 7.60033 160.958 7.409C160.822 7.213 160.643 7.04967 160.419 6.919C160.195 6.78833 159.938 6.67867 159.649 6.59C159.359 6.49667 159.065 6.40333 158.767 6.31C158.468 6.212 158.174 6.1 157.885 5.974C157.595 5.848 157.339 5.68467 157.115 5.484C156.891 5.28333 156.709 5.03367 156.569 4.735C156.433 4.43167 156.366 4.05833 156.366 3.615C156.366 3.26033 156.433 2.91733 156.569 2.586C156.709 2.25467 156.909 1.96067 157.171 1.704C157.437 1.44733 157.761 1.242 158.144 1.088C158.531 0.933999 158.974 0.856999 159.474 0.856999C160.034 0.856999 160.542 0.945666 161 1.123C161.462 1.30033 161.868 1.557 162.218 1.893L161.889 2.537ZM192.21 2.11H188.962V11H187.611V2.11H184.356V0.968999H192.21V2.11ZM199.887 9.894L199.88 11H193.699V0.968999H199.88V2.075H195.057V5.407H198.963V6.471H195.057V9.894H199.887ZM208.602 8.928C208.677 8.928 208.742 8.95833 208.798 9.019L209.337 9.6C208.927 10.076 208.427 10.447 207.839 10.713C207.256 10.979 206.549 11.112 205.718 11.112C205 11.112 204.346 10.9883 203.758 10.741C203.17 10.489 202.669 10.139 202.253 9.691C201.838 9.23833 201.516 8.697 201.287 8.067C201.059 7.437 200.944 6.744 200.944 5.988C200.944 5.232 201.063 4.539 201.301 3.909C201.539 3.279 201.873 2.73767 202.302 2.285C202.736 1.83233 203.254 1.48233 203.856 1.235C204.458 0.982999 205.123 0.856999 205.851 0.856999C206.565 0.856999 207.195 0.971333 207.741 1.2C208.287 1.42867 208.768 1.739 209.183 2.131L208.735 2.754C208.707 2.80067 208.67 2.84033 208.623 2.873C208.581 2.901 208.523 2.915 208.448 2.915C208.364 2.915 208.262 2.87067 208.14 2.782C208.019 2.68867 207.86 2.586 207.664 2.474C207.468 2.362 207.223 2.26167 206.929 2.173C206.635 2.07967 206.274 2.033 205.844 2.033C205.326 2.033 204.853 2.124 204.423 2.306C203.994 2.48333 203.623 2.74233 203.31 3.083C203.002 3.42367 202.762 3.839 202.589 4.329C202.417 4.819 202.33 5.372 202.33 5.988C202.33 6.61333 202.419 7.171 202.596 7.661C202.778 8.151 203.023 8.56633 203.331 8.907C203.644 9.243 204.01 9.49967 204.43 9.677C204.855 9.85433 205.312 9.943 205.802 9.943C206.101 9.943 206.369 9.92667 206.607 9.894C206.85 9.85667 207.072 9.80067 207.272 9.726C207.478 9.65133 207.667 9.558 207.839 9.446C208.017 9.32933 208.192 9.19167 208.364 9.033C208.444 8.963 208.523 8.928 208.602 8.928ZM219.039 0.968999V11H217.681V6.436H212.27V11H210.912V0.968999H212.27V5.442H217.681V0.968999H219.039ZM229.73 0.968999V11H229.051C228.944 11 228.853 10.9813 228.778 10.944C228.708 10.9067 228.638 10.8437 228.568 10.755L222.765 3.195C222.775 3.31167 222.782 3.426 222.786 3.538C222.791 3.65 222.793 3.755 222.793 3.853V11H221.603V0.968999H222.303C222.364 0.968999 222.415 0.973666 222.457 0.982999C222.499 0.987666 222.537 0.999333 222.569 1.018C222.602 1.032 222.635 1.05533 222.667 1.088C222.7 1.116 222.735 1.15333 222.772 1.2L228.575 8.753C228.566 8.63167 228.557 8.515 228.547 8.403C228.543 8.28633 228.54 8.17667 228.54 8.074V0.968999H229.73ZM241.563 5.988C241.563 6.73933 241.444 7.43 241.206 8.06C240.968 8.68533 240.632 9.22433 240.198 9.677C239.764 10.1297 239.241 10.482 238.63 10.734C238.023 10.9813 237.351 11.105 236.614 11.105C235.876 11.105 235.204 10.9813 234.598 10.734C233.991 10.482 233.471 10.1297 233.037 9.677C232.603 9.22433 232.267 8.68533 232.029 8.06C231.791 7.43 231.672 6.73933 231.672 5.988C231.672 5.23667 231.791 4.54833 232.029 3.923C232.267 3.293 232.603 2.75167 233.037 2.299C233.471 1.84167 233.991 1.487 234.598 1.235C235.204 0.982999 235.876 0.856999 236.614 0.856999C237.351 0.856999 238.023 0.982999 238.63 1.235C239.241 1.487 239.764 1.84167 240.198 2.299C240.632 2.75167 240.968 3.293 241.206 3.923C241.444 4.54833 241.563 5.23667 241.563 5.988ZM240.17 5.988C240.17 5.372 240.086 4.819 239.918 4.329C239.75 3.839 239.512 3.426 239.204 3.09C238.896 2.74933 238.522 2.488 238.084 2.306C237.645 2.124 237.155 2.033 236.614 2.033C236.077 2.033 235.589 2.124 235.151 2.306C234.712 2.488 234.336 2.74933 234.024 3.09C233.716 3.426 233.478 3.839 233.31 4.329C233.142 4.819 233.058 5.372 233.058 5.988C233.058 6.604 233.142 7.157 233.31 7.647C233.478 8.13233 233.716 8.54533 234.024 8.886C234.336 9.222 234.712 9.481 235.151 9.663C235.589 9.84033 236.077 9.929 236.614 9.929C237.155 9.929 237.645 9.84033 238.084 9.663C238.522 9.481 238.896 9.222 239.204 8.886C239.512 8.54533 239.75 8.13233 239.918 7.647C240.086 7.157 240.17 6.604 240.17 5.988ZM249.197 9.859V11H243.506V0.968999H244.857V9.859H249.197ZM259.5 5.988C259.5 6.73933 259.381 7.43 259.143 8.06C258.905 8.68533 258.569 9.22433 258.135 9.677C257.701 10.1297 257.179 10.482 256.567 10.734C255.961 10.9813 255.289 11.105 254.551 11.105C253.814 11.105 253.142 10.9813 252.535 10.734C251.929 10.482 251.408 10.1297 250.974 9.677C250.54 9.22433 250.204 8.68533 249.966 8.06C249.728 7.43 249.609 6.73933 249.609 5.988C249.609 5.23667 249.728 4.54833 249.966 3.923C250.204 3.293 250.54 2.75167 250.974 2.299C251.408 1.84167 251.929 1.487 252.535 1.235C253.142 0.982999 253.814 0.856999 254.551 0.856999C255.289 0.856999 255.961 0.982999 256.567 1.235C257.179 1.487 257.701 1.84167 258.135 2.299C258.569 2.75167 258.905 3.293 259.143 3.923C259.381 4.54833 259.5 5.23667 259.5 5.988ZM258.107 5.988C258.107 5.372 258.023 4.819 257.855 4.329C257.687 3.839 257.449 3.426 257.141 3.09C256.833 2.74933 256.46 2.488 256.021 2.306C255.583 2.124 255.093 2.033 254.551 2.033C254.015 2.033 253.527 2.124 253.088 2.306C252.65 2.488 252.274 2.74933 251.961 3.09C251.653 3.426 251.415 3.839 251.247 4.329C251.079 4.819 250.995 5.372 250.995 5.988C250.995 6.604 251.079 7.157 251.247 7.647C251.415 8.13233 251.653 8.54533 251.961 8.886C252.274 9.222 252.65 9.481 253.088 9.663C253.527 9.84033 254.015 9.929 254.551 9.929C255.093 9.929 255.583 9.84033 256.021 9.663C256.46 9.481 256.833 9.222 257.141 8.886C257.449 8.54533 257.687 8.13233 257.855 7.647C258.023 7.157 258.107 6.604 258.107 5.988ZM269.591 6.177V10.027C269.087 10.391 268.548 10.664 267.974 10.846C267.405 11.0233 266.779 11.112 266.098 11.112C265.291 11.112 264.563 10.9883 263.914 10.741C263.265 10.489 262.71 10.139 262.248 9.691C261.791 9.23833 261.438 8.697 261.191 8.067C260.944 7.437 260.82 6.744 260.82 5.988C260.82 5.22267 260.939 4.525 261.177 3.895C261.42 3.265 261.763 2.726 262.206 2.278C262.649 1.82533 263.188 1.47533 263.823 1.228C264.458 0.980666 265.167 0.856999 265.951 0.856999C266.348 0.856999 266.716 0.887333 267.057 0.947999C267.398 1.004 267.713 1.088 268.002 1.2C268.291 1.30733 268.56 1.44033 268.807 1.599C269.054 1.753 269.285 1.928 269.5 2.124L269.115 2.74C269.054 2.83333 268.975 2.894 268.877 2.922C268.784 2.94533 268.679 2.922 268.562 2.852C268.45 2.78667 268.322 2.70733 268.177 2.614C268.032 2.52067 267.855 2.432 267.645 2.348C267.44 2.25933 267.195 2.18467 266.91 2.124C266.63 2.06333 266.296 2.033 265.909 2.033C265.344 2.033 264.833 2.12633 264.376 2.313C263.919 2.495 263.529 2.75867 263.207 3.104C262.885 3.44467 262.638 3.86 262.465 4.35C262.292 4.83533 262.206 5.38133 262.206 5.988C262.206 6.618 262.295 7.18267 262.472 7.682C262.654 8.17667 262.911 8.599 263.242 8.949C263.578 9.29433 263.984 9.558 264.46 9.74C264.936 9.922 265.47 10.013 266.063 10.013C266.53 10.013 266.943 9.96167 267.302 9.859C267.666 9.75167 268.021 9.60467 268.366 9.418V7.213H266.805C266.716 7.213 266.644 7.18733 266.588 7.136C266.537 7.08467 266.511 7.02167 266.511 6.947V6.177H269.591ZM275.203 7.003V11H273.845V7.003L270.17 0.968999H271.36C271.482 0.968999 271.577 0.999333 271.647 1.06C271.717 1.116 271.778 1.19067 271.829 1.284L274.125 5.183C274.209 5.34633 274.286 5.50033 274.356 5.645C274.426 5.785 274.487 5.92733 274.538 6.072C274.59 5.92733 274.648 5.785 274.713 5.645C274.779 5.50033 274.851 5.34633 274.93 5.183L277.219 1.284C277.261 1.20467 277.32 1.13233 277.394 1.067C277.469 1.00167 277.565 0.968999 277.681 0.968999H278.878L275.203 7.003ZM308.161 8.928C308.236 8.928 308.301 8.95833 308.357 9.019L308.896 9.6C308.485 10.076 307.986 10.447 307.398 10.713C306.815 10.979 306.108 11.112 305.277 11.112C304.558 11.112 303.905 10.9883 303.317 10.741C302.729 10.489 302.227 10.139 301.812 9.691C301.397 9.23833 301.075 8.697 300.846 8.067C300.617 7.437 300.503 6.744 300.503 5.988C300.503 5.232 300.622 4.539 300.86 3.909C301.098 3.279 301.432 2.73767 301.861 2.285C302.295 1.83233 302.813 1.48233 303.415 1.235C304.017 0.982999 304.682 0.856999 305.41 0.856999C306.124 0.856999 306.754 0.971333 307.3 1.2C307.846 1.42867 308.327 1.739 308.742 2.131L308.294 2.754C308.266 2.80067 308.229 2.84033 308.182 2.873C308.14 2.901 308.082 2.915 308.007 2.915C307.923 2.915 307.82 2.87067 307.699 2.782C307.578 2.68867 307.419 2.586 307.223 2.474C307.027 2.362 306.782 2.26167 306.488 2.173C306.194 2.07967 305.832 2.033 305.403 2.033C304.885 2.033 304.411 2.124 303.982 2.306C303.553 2.48333 303.182 2.74233 302.869 3.083C302.561 3.42367 302.321 3.839 302.148 4.329C301.975 4.819 301.889 5.372 301.889 5.988C301.889 6.61333 301.978 7.171 302.155 7.661C302.337 8.151 302.582 8.56633 302.89 8.907C303.203 9.243 303.569 9.49967 303.989 9.677C304.414 9.85433 304.871 9.943 305.361 9.943C305.66 9.943 305.928 9.92667 306.166 9.894C306.409 9.85667 306.63 9.80067 306.831 9.726C307.036 9.65133 307.225 9.558 307.398 9.446C307.575 9.32933 307.75 9.19167 307.923 9.033C308.002 8.963 308.082 8.928 308.161 8.928ZM319.547 5.988C319.547 6.73933 319.428 7.43 319.19 8.06C318.952 8.68533 318.616 9.22433 318.182 9.677C317.748 10.1297 317.225 10.482 316.614 10.734C316.007 10.9813 315.335 11.105 314.598 11.105C313.861 11.105 313.189 10.9813 312.582 10.734C311.975 10.482 311.455 10.1297 311.021 9.677C310.587 9.22433 310.251 8.68533 310.013 8.06C309.775 7.43 309.656 6.73933 309.656 5.988C309.656 5.23667 309.775 4.54833 310.013 3.923C310.251 3.293 310.587 2.75167 311.021 2.299C311.455 1.84167 311.975 1.487 312.582 1.235C313.189 0.982999 313.861 0.856999 314.598 0.856999C315.335 0.856999 316.007 0.982999 316.614 1.235C317.225 1.487 317.748 1.84167 318.182 2.299C318.616 2.75167 318.952 3.293 319.19 3.923C319.428 4.54833 319.547 5.23667 319.547 5.988ZM318.154 5.988C318.154 5.372 318.07 4.819 317.902 4.329C317.734 3.839 317.496 3.426 317.188 3.09C316.88 2.74933 316.507 2.488 316.068 2.306C315.629 2.124 315.139 2.033 314.598 2.033C314.061 2.033 313.574 2.124 313.135 2.306C312.696 2.488 312.321 2.74933 312.008 3.09C311.7 3.426 311.462 3.839 311.294 4.329C311.126 4.819 311.042 5.372 311.042 5.988C311.042 6.604 311.126 7.157 311.294 7.647C311.462 8.13233 311.7 8.54533 312.008 8.886C312.321 9.222 312.696 9.481 313.135 9.663C313.574 9.84033 314.061 9.929 314.598 9.929C315.139 9.929 315.629 9.84033 316.068 9.663C316.507 9.481 316.88 9.222 317.188 8.886C317.496 8.54533 317.734 8.13233 317.902 7.647C318.07 7.157 318.154 6.604 318.154 5.988ZM329.617 0.968999V11H328.938C328.831 11 328.74 10.9813 328.665 10.944C328.595 10.9067 328.525 10.8437 328.455 10.755L322.652 3.195C322.661 3.31167 322.668 3.426 322.673 3.538C322.678 3.65 322.68 3.755 322.68 3.853V11H321.49V0.968999H322.19C322.251 0.968999 322.302 0.973666 322.344 0.982999C322.386 0.987666 322.423 0.999333 322.456 1.018C322.489 1.032 322.521 1.05533 322.554 1.088C322.587 1.116 322.622 1.15333 322.659 1.2L328.462 8.753C328.453 8.63167 328.443 8.515 328.434 8.403C328.429 8.28633 328.427 8.17667 328.427 8.074V0.968999H329.617ZM338.964 2.11H335.716V11H334.365V2.11H331.11V0.968999H338.964V2.11ZM344.796 7.276L343.221 3.195C343.174 3.07367 343.125 2.93367 343.074 2.775C343.022 2.61167 342.973 2.439 342.927 2.257C342.829 2.635 342.728 2.95 342.626 3.202L341.051 7.276H344.796ZM347.624 11H346.574C346.452 11 346.354 10.9697 346.28 10.909C346.205 10.8483 346.149 10.7713 346.112 10.678L345.174 8.256H340.673L339.735 10.678C339.707 10.762 339.653 10.8367 339.574 10.902C339.494 10.9673 339.396 11 339.28 11H338.23L342.241 0.968999H343.613L347.624 11ZM355.725 8.928C355.8 8.928 355.865 8.95833 355.921 9.019L356.46 9.6C356.05 10.076 355.55 10.447 354.962 10.713C354.379 10.979 353.672 11.112 352.841 11.112C352.123 11.112 351.469 10.9883 350.881 10.741C350.293 10.489 349.792 10.139 349.376 9.691C348.961 9.23833 348.639 8.697 348.41 8.067C348.182 7.437 348.067 6.744 348.067 5.988C348.067 5.232 348.186 4.539 348.424 3.909C348.662 3.279 348.996 2.73767 349.425 2.285C349.859 1.83233 350.377 1.48233 350.979 1.235C351.581 0.982999 352.246 0.856999 352.974 0.856999C353.688 0.856999 354.318 0.971333 354.864 1.2C355.41 1.42867 355.891 1.739 356.306 2.131L355.858 2.754C355.83 2.80067 355.793 2.84033 355.746 2.873C355.704 2.901 355.646 2.915 355.571 2.915C355.487 2.915 355.385 2.87067 355.263 2.782C355.142 2.68867 354.983 2.586 354.787 2.474C354.591 2.362 354.346 2.26167 354.052 2.173C353.758 2.07967 353.397 2.033 352.967 2.033C352.449 2.033 351.976 2.124 351.546 2.306C351.117 2.48333 350.746 2.74233 350.433 3.083C350.125 3.42367 349.885 3.839 349.712 4.329C349.54 4.819 349.453 5.372 349.453 5.988C349.453 6.61333 349.542 7.171 349.719 7.661C349.901 8.151 350.146 8.56633 350.454 8.907C350.767 9.243 351.133 9.49967 351.553 9.677C351.978 9.85433 352.435 9.943 352.925 9.943C353.224 9.943 353.492 9.92667 353.73 9.894C353.973 9.85667 354.195 9.80067 354.395 9.726C354.601 9.65133 354.79 9.558 354.962 9.446C355.14 9.32933 355.315 9.19167 355.487 9.033C355.567 8.963 355.646 8.928 355.725 8.928ZM364.818 2.11H361.57V11H360.219V2.11H356.964V0.968999H364.818V2.11ZM388.924 2.537C388.882 2.607 388.835 2.66067 388.784 2.698C388.737 2.73067 388.679 2.747 388.609 2.747C388.529 2.747 388.436 2.70733 388.329 2.628C388.221 2.54867 388.086 2.46233 387.923 2.369C387.764 2.271 387.57 2.18233 387.342 2.103C387.118 2.02367 386.845 1.984 386.523 1.984C386.219 1.984 385.951 2.026 385.718 2.11C385.489 2.18933 385.295 2.299 385.137 2.439C384.983 2.579 384.866 2.74467 384.787 2.936C384.707 3.12267 384.668 3.32567 384.668 3.545C384.668 3.825 384.735 4.05833 384.871 4.245C385.011 4.427 385.193 4.58333 385.417 4.714C385.645 4.84467 385.902 4.959 386.187 5.057C386.476 5.15033 386.77 5.24833 387.069 5.351C387.372 5.45367 387.666 5.57033 387.951 5.701C388.24 5.827 388.497 5.988 388.721 6.184C388.949 6.38 389.131 6.62033 389.267 6.905C389.407 7.18967 389.477 7.53967 389.477 7.955C389.477 8.39367 389.402 8.80667 389.253 9.194C389.103 9.57667 388.884 9.91033 388.595 10.195C388.31 10.4797 387.958 10.7037 387.538 10.867C387.122 11.0303 386.649 11.112 386.117 11.112C385.463 11.112 384.871 10.9953 384.339 10.762C383.807 10.524 383.352 10.2043 382.974 9.803L383.366 9.159C383.403 9.10767 383.447 9.06567 383.499 9.033C383.555 8.99567 383.615 8.977 383.681 8.977C383.741 8.977 383.809 9.00267 383.884 9.054C383.963 9.10067 384.052 9.16133 384.15 9.236C384.248 9.31067 384.36 9.39233 384.486 9.481C384.612 9.56967 384.754 9.65133 384.913 9.726C385.076 9.80067 385.26 9.86367 385.466 9.915C385.671 9.96167 385.902 9.985 386.159 9.985C386.481 9.985 386.768 9.94067 387.02 9.852C387.272 9.76333 387.484 9.63967 387.657 9.481C387.834 9.31767 387.969 9.124 388.063 8.9C388.156 8.676 388.203 8.42633 388.203 8.151C388.203 7.84767 388.133 7.60033 387.993 7.409C387.857 7.213 387.678 7.04967 387.454 6.919C387.23 6.78833 386.973 6.67867 386.684 6.59C386.394 6.49667 386.1 6.40333 385.802 6.31C385.503 6.212 385.209 6.1 384.92 5.974C384.63 5.848 384.374 5.68467 384.15 5.484C383.926 5.28333 383.744 5.03367 383.604 4.735C383.468 4.43167 383.401 4.05833 383.401 3.615C383.401 3.26033 383.468 2.91733 383.604 2.586C383.744 2.25467 383.944 1.96067 384.206 1.704C384.472 1.44733 384.796 1.242 385.179 1.088C385.566 0.933999 386.009 0.856999 386.509 0.856999C387.069 0.856999 387.577 0.945666 388.035 1.123C388.497 1.30033 388.903 1.557 389.253 1.893L388.924 2.537ZM392.752 11H391.394V0.968999H392.752V11ZM403.466 6.177V10.027C402.962 10.391 402.423 10.664 401.849 10.846C401.28 11.0233 400.654 11.112 399.973 11.112C399.166 11.112 398.438 10.9883 397.789 10.741C397.14 10.489 396.585 10.139 396.123 9.691C395.666 9.23833 395.313 8.697 395.066 8.067C394.819 7.437 394.695 6.744 394.695 5.988C394.695 5.22267 394.814 4.525 395.052 3.895C395.295 3.265 395.638 2.726 396.081 2.278C396.524 1.82533 397.063 1.47533 397.698 1.228C398.333 0.980666 399.042 0.856999 399.826 0.856999C400.223 0.856999 400.591 0.887333 400.932 0.947999C401.273 1.004 401.588 1.088 401.877 1.2C402.166 1.30733 402.435 1.44033 402.682 1.599C402.929 1.753 403.16 1.928 403.375 2.124L402.99 2.74C402.929 2.83333 402.85 2.894 402.752 2.922C402.659 2.94533 402.554 2.922 402.437 2.852C402.325 2.78667 402.197 2.70733 402.052 2.614C401.907 2.52067 401.73 2.432 401.52 2.348C401.315 2.25933 401.07 2.18467 400.785 2.124C400.505 2.06333 400.171 2.033 399.784 2.033C399.219 2.033 398.708 2.12633 398.251 2.313C397.794 2.495 397.404 2.75867 397.082 3.104C396.76 3.44467 396.513 3.86 396.34 4.35C396.167 4.83533 396.081 5.38133 396.081 5.988C396.081 6.618 396.17 7.18267 396.347 7.682C396.529 8.17667 396.786 8.599 397.117 8.949C397.453 9.29433 397.859 9.558 398.335 9.74C398.811 9.922 399.345 10.013 399.938 10.013C400.405 10.013 400.818 9.96167 401.177 9.859C401.541 9.75167 401.896 9.60467 402.241 9.418V7.213H400.68C400.591 7.213 400.519 7.18733 400.463 7.136C400.412 7.08467 400.386 7.02167 400.386 6.947V6.177H403.466ZM413.672 0.968999V11H412.993C412.885 11 412.794 10.9813 412.72 10.944C412.65 10.9067 412.58 10.8437 412.51 10.755L406.707 3.195C406.716 3.31167 406.723 3.426 406.728 3.538C406.732 3.65 406.735 3.755 406.735 3.853V11H405.545V0.968999H406.245C406.305 0.968999 406.357 0.973666 406.399 0.982999C406.441 0.987666 406.478 0.999333 406.511 1.018C406.543 1.032 406.576 1.05533 406.609 1.088C406.641 1.116 406.676 1.15333 406.714 1.2L412.517 8.753C412.507 8.63167 412.498 8.515 412.489 8.403C412.484 8.28633 412.482 8.17667 412.482 8.074V0.968999H413.672ZM423.689 9.922C424.104 9.922 424.475 9.852 424.802 9.712C425.129 9.572 425.404 9.376 425.628 9.124C425.857 8.872 426.029 8.571 426.146 8.221C426.267 7.871 426.328 7.486 426.328 7.066V0.968999H427.679V7.066C427.679 7.64467 427.586 8.18133 427.399 8.676C427.217 9.17067 426.953 9.6 426.608 9.964C426.267 10.3233 425.85 10.6057 425.355 10.811C424.86 11.0163 424.305 11.119 423.689 11.119C423.073 11.119 422.518 11.0163 422.023 10.811C421.528 10.6057 421.108 10.3233 420.763 9.964C420.418 9.6 420.152 9.17067 419.965 8.676C419.783 8.18133 419.692 7.64467 419.692 7.066V0.968999H421.043V7.059C421.043 7.479 421.101 7.864 421.218 8.214C421.339 8.564 421.512 8.865 421.736 9.117C421.965 9.369 422.242 9.56733 422.569 9.712C422.9 9.852 423.274 9.922 423.689 9.922ZM433.074 6.17C433.461 6.17 433.802 6.11867 434.096 6.016C434.395 5.91333 434.644 5.771 434.845 5.589C435.05 5.40233 435.204 5.18067 435.307 4.924C435.41 4.66733 435.461 4.385 435.461 4.077C435.461 3.43767 435.263 2.93833 434.866 2.579C434.474 2.21967 433.877 2.04 433.074 2.04H431.464V6.17H433.074ZM433.074 0.968999C433.709 0.968999 434.259 1.04367 434.726 1.193C435.197 1.33767 435.587 1.54533 435.895 1.816C436.203 2.08667 436.432 2.41333 436.581 2.796C436.735 3.17867 436.812 3.60567 436.812 4.077C436.812 4.54367 436.73 4.97067 436.567 5.358C436.404 5.74533 436.163 6.079 435.846 6.359C435.533 6.639 435.144 6.85833 434.677 7.017C434.215 7.171 433.681 7.248 433.074 7.248H431.464V11H430.113V0.968999H433.074Z" fill="white"/>
</svg>
